<?xml version="1.0" encoding="UTF-8"?>
<svg version="1.1" xmlns="http://www.w3.org/2000/svg" width="1080" height="1080">
<path d="M0 0 C356.4 0 712.8 0 1080 0 C1080 356.4 1080 712.8 1080 1080 C723.6 1080 367.2 1080 0 1080 C0 723.6 0 367.2 0 0 Z " fill="#FEFEFE" transform="translate(0,0)"/>
<path d="M0 0 C5.73609118 5.08426263 10.38006836 9.81601412 11.01742554 17.77839661 C11.02504913 19.05140121 11.03267273 20.32440582 11.04052734 21.63598633 C11.04724457 22.34253357 11.05396179 23.04908081 11.06088257 23.77703857 C11.07983904 26.10794172 11.08378735 28.43855583 11.0859375 30.76953125 C11.09237349 32.40557469 11.09910244 34.04161699 11.10610962 35.67765808 C11.11808115 39.11154844 11.12179122 42.5453383 11.12060547 45.97924805 C11.12040376 50.33513905 11.14755118 54.69036667 11.18214989 59.04610157 C11.2046381 62.43093185 11.20843618 65.81560896 11.20738602 69.20050621 C11.20971515 70.80334415 11.21838303 72.40618813 11.23405075 74.00895119 C11.36830825 89.17955982 10.02513648 105.96511661 -0.875 117.5 C-5.29824697 121.70043415 -10.18148232 125.06994249 -15.25 128.4375 C-16.24 129.18 -17.23 129.9225 -18.25 130.6875 C-25.70741204 135.03765703 -33.56003743 135.97014607 -42.0625 135.875 C-43.02518799 135.86670166 -43.98787598 135.85840332 -44.97973633 135.84985352 C-60.05251698 135.49366385 -71.95341885 130.19200631 -82.5 119.375 C-87.78904781 113.29427942 -90.97433817 106.74259812 -94.25 99.4375 C-94.60070557 98.82567871 -94.95141113 98.21385742 -95.31274414 97.58349609 C-99.3147856 88.42018679 -97.54462274 72.16278451 -94.125 62.9375 C-92.7265625 60.015625 -92.7265625 60.015625 -91.25 57.4375 C-90.58097656 56.22320312 -90.58097656 56.22320312 -89.8984375 54.984375 C-81.67407317 41.47620119 -68.46224588 32.42825409 -53.1875 28.6875 C-41.97450399 27.73320247 -41.97450399 27.73320247 -37.25 30.4375 C-37 33.25 -37 33.25 -37.25 36.4375 C-40.29139066 39.47889066 -42.81319827 39.80089479 -47 40.125 C-57.33261573 41.52445134 -68.96535751 46.57200866 -75.9296875 54.59375 C-84.09139002 65.99115707 -85.50899944 77.74902863 -84.25 91.4375 C-82.21300867 101.30996368 -76.54443379 108.7041765 -69.25 115.4375 C-68.54875 116.118125 -67.8475 116.79875 -67.125 117.5 C-56.17966077 124.87620687 -42.51924084 125.22778766 -29.83203125 122.77734375 C-23.30039417 120.64926453 -15.46906613 116.58385193 -12.12109375 110.328125 C-11.83363281 109.70421875 -11.54617188 109.0803125 -11.25 108.4375 C-10.63125 107.86 -10.0125 107.2825 -9.375 106.6875 C-0.43310187 97.21960786 -0.91452529 84.26501204 -0.87890625 72.08203125 C-0.8699276 70.4911847 -0.86080555 68.90033896 -0.85154724 67.30949402 C-0.83512666 63.98861648 -0.8273687 60.66783902 -0.82446289 57.34692383 C-0.81905757 53.09640095 -0.78126078 48.84681866 -0.73571873 44.59656239 C-0.70596691 41.31683406 -0.69873991 38.03733408 -0.69773674 34.75748253 C-0.69353787 33.19018896 -0.68111674 31.6228945 -0.66021919 30.05573463 C-0.63331454 27.86563083 -0.63812234 25.67773431 -0.65063477 23.48754883 C-0.64556412 22.24370926 -0.64049347 20.99986969 -0.63526917 19.71833801 C-1.42254053 15.51664569 -2.91842038 14.03622563 -6.25 11.4375 C-9.79271642 10.68738633 -9.79271642 10.68738633 -13.25 11.4375 C-16.27819205 13.6598867 -17.15617607 14.84425572 -17.74879456 18.59135437 C-17.74862839 19.83439835 -17.74846222 21.07744232 -17.74829102 22.3581543 C-17.75380981 23.04653885 -17.75932861 23.7349234 -17.76501465 24.44416809 C-17.77432407 25.93589619 -17.77444846 27.42770377 -17.76642036 28.91943932 C-17.75376808 31.28758063 -17.7651018 33.65455986 -17.78245544 36.0226593 C-17.80916943 40.20318442 -17.81475132 44.38342465 -17.81335449 48.56402588 C-17.81112802 55.23693296 -17.82548684 61.90948456 -17.86894035 68.58225441 C-17.87871022 70.90266031 -17.87009391 73.22249895 -17.86024475 75.54289246 C-17.88437923 92.3092573 -17.88437923 92.3092573 -23.3359375 98.99609375 C-24.09132813 99.61613281 -24.84671875 100.23617187 -25.625 100.875 C-26.37523437 101.51308594 -27.12546875 102.15117188 -27.8984375 102.80859375 C-34.55044887 107.41638235 -41.40679249 107.11246012 -49.25 106.4375 C-54.59170522 105.26063355 -58.81726261 103.55217575 -62.1875 99.125 C-62.90646872 97.91397113 -63.59581084 96.68471429 -64.25 95.4375 C-65.1471875 93.890625 -65.1471875 93.890625 -66.0625 92.3125 C-68.3925204 86.38032164 -68.22578703 79.16267437 -66.62890625 73.06640625 C-63.83857466 66.70445023 -58.50936817 62.06718408 -52.375 59 C-47.98498339 58.20979701 -43.69694437 58.2793083 -39.25 58.4375 C-38.0625 60.625 -38.0625 60.625 -37.25 63.4375 C-38.0625 66.0625 -38.0625 66.0625 -40.25 68.4375 C-42.47892403 69.28029853 -44.73132696 69.90513174 -47.0234375 70.5546875 C-51.16550251 72.19697994 -53.28794569 75.51339137 -55.25 79.4375 C-55.90141494 84.97452695 -54.84725076 87.75469567 -51.63671875 92.0546875 C-49.12716125 94.55717582 -46.7735549 94.46018786 -43.3125 94.625 C-40.12052999 94.56653901 -37.84634958 94.45688301 -35.25 92.4375 C-32.46547755 88.57458524 -31.85477608 85.80461112 -31.75756836 81.07763672 C-31.72420883 79.8121701 -31.6908493 78.54670349 -31.65647888 77.2428894 C-31.63423094 75.86765602 -31.61202018 74.49242204 -31.58984375 73.1171875 C-31.55557675 71.6933328 -31.51978994 70.26951393 -31.4825592 68.84573364 C-31.38751408 65.0986303 -31.30808102 61.3513808 -31.23345947 57.6038208 C-31.11360115 51.62825485 -30.97748881 45.65316431 -30.82730293 39.67828751 C-30.77858694 37.60753126 -30.7410609 35.53679238 -30.70457458 33.46578979 C-30.20485084 12.21815932 -30.20485084 12.21815932 -23 3.8125 C-16.38770129 -1.89812162 -8.00689532 -3.8494689 0 0 Z " fill="#F06540" transform="translate(628.25,430.5625)"/>
<path d="M0 0 C4.22709476 3.47561124 7.48895331 7.44888342 8.29156494 13.02600098 C8.42447267 15.37003368 8.46720158 17.69910921 8.4765625 20.046875 C8.49214203 20.89928772 8.50772156 21.75170044 8.52377319 22.62994385 C8.57107537 25.33662073 8.59899471 28.043042 8.625 30.75 C8.66150497 33.47106133 8.70208801 36.19197817 8.74765015 38.91290283 C8.77485595 40.60222896 8.79621632 42.29166129 8.81118774 43.98114014 C8.76094291 48.12355155 8.76094291 48.12355155 10 52 C12.52733235 52.65555119 12.52733235 52.65555119 15 53 C15 53.66 15 54.32 15 55 C10.38670308 56.53776564 5.81200533 56.66273127 1 56 C-1.6875 53.625 -1.6875 53.625 -3 51 C-3 50.34 -3 49.68 -3 49 C-3.51949219 49.40992188 -4.03898437 49.81984375 -4.57421875 50.2421875 C-11.36636878 55.49009639 -16.29300745 57.9425095 -25 57 C-30.88130521 55.23560844 -33.55274552 52.8667122 -37 48 C-38.66529085 43.00412746 -39.0525959 37.72825306 -37.12890625 32.7421875 C-33.74610492 26.90824161 -29.28544507 23.60451969 -23.3125 20.6875 C-17.07446548 19.39281359 -10.15290962 19.16001506 -4 21 C-4.06033709 18.60160083 -4.14744518 16.2091615 -4.25 13.8125 C-4.26417969 13.13896484 -4.27835937 12.46542969 -4.29296875 11.77148438 C-4.52852223 6.94263811 -5.58686088 4.40672344 -9 1 C-11.88861709 -0.44430855 -13.79647701 -0.37688506 -17 0 C-21.08200872 3.11010188 -22.98955158 6.60154598 -24.91015625 11.23046875 C-26.29815479 13.48410079 -27.54698638 14.07953584 -30 15 C-32.75 15.125 -32.75 15.125 -35 15 C-34.70019012 9.00380248 -31.93058798 5.29136659 -28 1 C-20.12245759 -4.81437654 -8.43300066 -4.80239217 0 0 Z " fill="#060606" transform="translate(442,494)"/>
<path d="M0 0 C4.84282231 4.0425254 9.33957945 8.92454886 10.5625 15.25 C9.15095901 15.52748242 7.73270201 15.77093516 6.3125 16 C5.52359375 16.13921875 4.7346875 16.2784375 3.921875 16.421875 C1.5625 16.25 1.5625 16.25 -0.55859375 14.578125 C-2.45644178 12.22652952 -3.83885193 9.9177612 -5.25 7.25 C-8.04972028 2.41282425 -10.36436821 0.49388521 -15.4375 -1.75 C-16.0975 -2.08 -16.7575 -2.41 -17.4375 -2.75 C-27.19461257 -3.58242499 -32.34943885 -2.72116968 -40 3.25 C-50.22242454 15.83144559 -50.69850732 29.73071484 -49.4375 45.25 C-48.5590421 49.94706062 -46.7612927 54.08458484 -44.4375 58.25 C-44.10363281 58.88679687 -43.76976562 59.52359375 -43.42578125 60.1796875 C-40.23490187 65.59206518 -35.3443934 69.2752102 -29.4375 71.25 C-22.40416028 72.15413635 -16.15419694 71.66002336 -10.4375 67.25 C-7.04357414 63.85607414 -3.99645175 60.19868969 -1 56.453125 C0.5625 55.25 0.5625 55.25 2.82421875 55.17578125 C3.62472656 55.30339844 4.42523438 55.43101562 5.25 55.5625 C6.05824219 55.68238281 6.86648438 55.80226563 7.69921875 55.92578125 C8.31410156 56.03277344 8.92898438 56.13976562 9.5625 56.25 C7.23807818 62.91102968 2.86462672 67.39625438 -3.26953125 70.83984375 C-14.33260148 75.94929385 -25.66598667 77.37146533 -37.3125 73.1875 C-43.10735933 70.65535216 -47.83109727 67.56795626 -52.4375 63.25 C-53.14777344 62.59257813 -53.85804688 61.93515625 -54.58984375 61.2578125 C-62.70849041 53.00309913 -65.88730545 43.54036522 -66 32.125 C-65.78065404 20.74390888 -62.96631131 12.77668218 -54.9296875 4.4765625 C-51.07747942 1.03493459 -47.0783383 -1.50371565 -42.4375 -3.75 C-41.75429688 -4.08902344 -41.07109375 -4.42804688 -40.3671875 -4.77734375 C-27.93135074 -9.90771747 -10.8855039 -7.53136943 0 0 Z " fill="#080808" transform="translate(388.4375,476.75)"/>
<path d="M0 0 C0.6906958 -0.02231689 1.3813916 -0.04463379 2.09301758 -0.06762695 C5.63341406 -0.05157958 7.32504344 0.19195196 10.1015625 2.46484375 C10.60429688 3.11582031 11.10703125 3.76679688 11.625 4.4375 C10.635 6.7475 9.645 9.0575 8.625 11.4375 C7.36945313 11.54707031 6.11390625 11.65664063 4.8203125 11.76953125 C-12.16293919 13.34045234 -29.01600543 17.00503738 -41.578125 29.65625 C-43.375 31.4375 -43.375 31.4375 -45.375 31.4375 C-45.375 32.0975 -45.375 32.7575 -45.375 33.4375 C-46.54126663 34.56946467 -47.70830988 35.70063841 -48.87890625 36.828125 C-59.6905733 48.45843003 -64.52097834 64.17992163 -65.51611328 79.70092773 C-65.80806271 83.25131561 -66.13639238 85.14873055 -68.4375 87.93359375 C-69.3965625 88.67802734 -69.3965625 88.67802734 -70.375 89.4375 C-72.39545442 88.83566251 -74.39611039 88.16443904 -76.375 87.4375 C-80.35401625 79.47946749 -76.7846793 66.61807147 -74.375 58.4375 C-70.66562241 48.01625309 -63.91896475 31.96644482 -54.078125 26.05859375 C-53.51609375 25.85363281 -52.9540625 25.64867187 -52.375 25.4375 C-52.375 24.7775 -52.375 24.1175 -52.375 23.4375 C-50.73046875 22.03515625 -50.73046875 22.03515625 -48.5625 20.5 C-46.53481365 19.05587366 -44.63433425 17.70091825 -42.88671875 15.92578125 C-36.33109285 9.47179296 -26.8574551 6.40899359 -18.375 3.4375 C-17.55386719 3.11523438 -16.73273437 2.79296875 -15.88671875 2.4609375 C-10.60911368 0.56277366 -5.56322318 0.10812691 0 0 Z " fill="#ED6641" transform="translate(579.375,429.5625)"/>
<path d="M0 0 C-0.3125 2.875 -0.3125 2.875 -1 6 C-5.16293736 8.77529157 -9.25689774 8.35569773 -14.10742188 8.390625 C-17.63782115 8.50841404 -19.6223268 8.70390421 -22.44140625 10.9140625 C-25.2318661 14.6486629 -25.1218588 17.00278701 -25.11352539 21.65283203 C-25.11367142 22.33587402 -25.11381744 23.01891602 -25.1139679 23.72265625 C-25.11327023 25.9844071 -25.10548465 28.246076 -25.09765625 30.5078125 C-25.09579155 32.07437088 -25.09436789 33.64092984 -25.09336853 35.20748901 C-25.08954743 39.33389898 -25.0797206 43.46027384 -25.06866455 47.58666992 C-25.0584417 51.79605637 -25.05386903 56.00544847 -25.04882812 60.21484375 C-25.03809798 68.47657862 -25.02102642 76.73828495 -25 85 C-23.35 85.66 -21.7 86.32 -20 87 C-20 87.66 -20 88.32 -20 89 C-23.92767594 90.96383797 -28.71773499 90.47510337 -33 90 C-35.65563802 88.1031157 -36.57242527 86.85514945 -38 84 C-38.10521162 82.42985025 -38.14871657 80.85536008 -38.16113281 79.28173828 C-38.17074036 78.29956329 -38.1803479 77.31738831 -38.19024658 76.30545044 C-38.19449646 75.23785492 -38.19874634 74.1702594 -38.203125 73.0703125 C-38.20882507 71.96960419 -38.21452515 70.86889587 -38.22039795 69.73483276 C-38.22986288 67.39614831 -38.23638783 65.05745044 -38.24023438 62.71875 C-38.24986621 59.17423375 -38.28084493 55.63031572 -38.3125 52.0859375 C-38.31903752 49.80989926 -38.32428504 47.53385689 -38.328125 45.2578125 C-38.3404718 44.21045929 -38.3528186 43.16310608 -38.36553955 42.08401489 C-38.33038014 30.20804003 -36.04086769 19.9859099 -28 11 C-20.2735191 3.94473848 -10.65219913 -0.68723865 0 0 Z " fill="#030303" transform="translate(723,460)"/>
<path d="M0 0 C3.96 0 7.92 0 12 0 C14.87789314 6.86266825 17.31112044 13.80645443 19.63378906 20.87011719 C22.29825401 28.95782938 25.13739996 36.98065945 28 45 C30.74309197 41.68255707 32.46150721 38.09043016 34.1796875 34.1796875 C34.62164963 33.1916362 34.62164963 33.1916362 35.07254028 32.18362427 C36.0114486 30.08283126 36.94363299 27.97914589 37.875 25.875 C39.09861095 23.12107331 40.32529105 20.3685362 41.5546875 17.6171875 C41.84954041 16.95676453 42.14439331 16.29634155 42.44818115 15.61590576 C44.81909705 10.33546246 47.33930083 5.14114252 50 0 C50.66 0 51.32 0 52 0 C49.70041613 7.49727344 46.60682969 14.42075529 43.25 21.5 C42.08442458 23.97654705 40.9227811 26.45492817 39.76171875 28.93359375 C39.45910629 29.57868393 39.15649384 30.22377411 38.8447113 30.88841248 C36.52937044 35.83604271 34.26472754 40.80534629 32.01953125 45.78515625 C31.68877594 46.51789764 31.35802063 47.25063904 31.01724243 48.00558472 C29.71573419 50.89037349 28.41477813 53.77537213 27.12194824 56.6640625 C16.42053813 80.56932262 16.42053813 80.56932262 11 84 C3.8262239 85.67481154 -1.93813069 82.54347266 -8 79 C-7.21007484 74.75074742 -5.15346563 72.91089135 -2 70 C-1.12988281 70.75796875 -1.12988281 70.75796875 -0.2421875 71.53125 C4.56035843 75.53282442 4.56035843 75.53282442 10.25 77.9375 C13.90495401 76.69149295 14.91147844 74.88253667 16.82421875 71.62890625 C17.21222656 70.76136719 17.60023438 69.89382813 18 69 C18.29845825 68.40743912 18.5969165 67.81487823 18.90441895 67.20436096 C22.04013744 59.92156711 19.97866272 54.89087804 17.20703125 47.7734375 C16.7858049 46.62638336 16.36457855 45.47932922 15.93058777 44.29751587 C14.58364486 40.64648744 13.19926213 37.01106671 11.8125 33.375 C10.45244798 29.72893382 9.10005717 26.0800869 7.74797058 22.43106079 C6.90529907 20.1659086 6.05638312 17.90306686 5.20039368 15.64291382 C3.24464052 10.46910985 1.40278214 5.3519343 0 0 Z " fill="#060606" transform="translate(705,492)"/>
<path d="M0 0 C-0.75 6.75 -0.75 6.75 -3 9 C-5.99033501 9.26943934 -8.95549053 9.31480916 -11.95703125 9.36328125 C-16.15158548 10.24096076 -17.40445964 11.59042582 -20 15 C-20.74160559 18.36863983 -20.72147147 21.67404902 -20.70703125 25.11328125 C-20.72215256 26.08283249 -20.73727386 27.05238373 -20.75285339 28.05131531 C-20.79573491 31.13861337 -20.80456899 34.22493378 -20.8125 37.3125 C-20.8356439 39.40953121 -20.86100901 41.50653916 -20.88867188 43.60351562 C-20.95152905 48.73576353 -20.98386075 53.86740113 -21 59 C-24.96 59 -28.92 59 -33 59 C-33 39.86 -33 20.72 -33 1 C-29.04 1 -25.08 1 -21 1 C-20.67 3.31 -20.34 5.62 -20 8 C-18.9171875 6.8553125 -18.9171875 6.8553125 -17.8125 5.6875 C-11.9054413 0.04297724 -7.94827524 -0.41670569 0 0 Z " fill="#050505" transform="translate(680,491)"/>
<path d="M0 0 C-0.75 6.75 -0.75 6.75 -3 9 C-5.99033501 9.26943934 -8.95549053 9.31480916 -11.95703125 9.36328125 C-16.15158548 10.24096076 -17.40445964 11.59042582 -20 15 C-20.74160559 18.36863983 -20.72147147 21.67404902 -20.70703125 25.11328125 C-20.72215256 26.08283249 -20.73727386 27.05238373 -20.75285339 28.05131531 C-20.79573491 31.13861337 -20.80456899 34.22493378 -20.8125 37.3125 C-20.8356439 39.40953121 -20.86100901 41.50653916 -20.88867188 43.60351562 C-20.95152905 48.73576353 -20.98386075 53.86740113 -21 59 C-24.96 59 -28.92 59 -33 59 C-33 39.86 -33 20.72 -33 1 C-29.04 1 -25.08 1 -21 1 C-20.67 3.31 -20.34 5.62 -20 8 C-18.9171875 6.8553125 -18.9171875 6.8553125 -17.8125 5.6875 C-11.9054413 0.04297724 -7.94827524 -0.41670569 0 0 Z " fill="#050505" transform="translate(496,491)"/>
<path d="M0 0 C5.74939776 5.0960571 10.40400441 9.83098161 11.00396729 17.81877136 C11.00555847 19.1098732 11.00714966 20.40097504 11.00878906 21.73120117 C11.0122937 22.44738617 11.01579834 23.16357117 11.01940918 23.90145874 C11.02818619 26.26122841 11.02238856 28.62069619 11.015625 30.98046875 C11.01697355 32.63088539 11.01891567 34.28130164 11.02142334 35.93171692 C11.02436977 39.39079572 11.02009518 42.84977113 11.01074219 46.30883789 C10.99939266 50.71893983 11.00588148 55.12879708 11.01788712 59.53888988 C11.02515701 62.94920146 11.02279362 66.35945627 11.01763153 69.76976967 C11.01630685 71.39429059 11.01790086 73.01881684 11.02259064 74.64333153 C11.04159538 83.08229282 10.97240259 91.22308499 8.75 99.4375 C8.42 99.4375 8.09 99.4375 7.75 99.4375 C7.75222061 98.40068588 7.75444122 97.36387177 7.75672913 96.29563904 C7.77702491 86.51158511 7.79200315 76.72753546 7.80181217 66.94346523 C7.80702464 61.91371723 7.81409256 56.88398625 7.82543945 51.85424805 C7.83632649 46.99780676 7.84228916 42.14138183 7.84487724 37.28492928 C7.84672101 35.43463954 7.85032141 33.58435067 7.85573006 31.73406792 C7.86301769 29.1370642 7.86398769 26.54012758 7.86352539 23.94311523 C7.8689183 22.80267258 7.8689183 22.80267258 7.87442017 21.63919067 C7.86578229 17.13753033 7.48766948 12.87993593 6.75 8.4375 C4.77 8.7675 2.79 9.0975 0.75 9.4375 C1.41 9.7675 2.07 10.0975 2.75 10.4375 C3.245 11.9225 3.245 11.9225 3.75 13.4375 C4.245 14.4275 4.245 14.4275 4.75 15.4375 C3.76 16.0975 2.77 16.7575 1.75 17.4375 C1.26983508 20.63085957 1.26983508 20.63085957 1.31762695 24.45751953 C1.3074353 25.17957581 1.29724365 25.90163208 1.28674316 26.64556885 C1.25649811 29.0372278 1.24733006 31.42848706 1.23828125 33.8203125 C1.22144302 35.47656599 1.20329395 37.13280664 1.18388367 38.78903198 C1.13628422 43.15211981 1.10653945 47.51515559 1.08044434 51.87841797 C1.05068875 56.32920621 1.00414137 60.77981484 0.95898438 65.23046875 C0.87283824 73.96605781 0.80554358 82.70166304 0.75 91.4375 C-0.24 91.9325 -0.24 91.9325 -1.25 92.4375 C-1.23889694 91.49646927 -1.22779388 90.55543854 -1.21635437 89.58589172 C-1.11495693 80.71372207 -1.04002455 71.84167011 -0.99093914 62.96905231 C-0.96485512 58.40758918 -0.92947938 53.84659413 -0.87280273 49.28540039 C-0.81843957 44.88279311 -0.78857047 40.48063577 -0.77561378 36.07771873 C-0.76638155 34.39875391 -0.74835268 32.71981347 -0.72134972 31.04104042 C-0.68500006 28.68738401 -0.68005681 26.3355818 -0.68237305 23.98168945 C-0.66439667 23.2890097 -0.64642029 22.59632996 -0.62789917 21.88265991 C-0.66820927 18.09200453 -1.18822368 16.51593118 -3.56282043 13.50114441 C-6.16896208 11.15945108 -6.16896208 11.15945108 -9.8125 10.875 C-13.86728215 11.53850981 -14.80536088 12.2040348 -17.25 15.4375 C-17.86744013 18.74258014 -17.86744013 18.74258014 -17.79589844 22.50097656 C-17.80623611 23.20381775 -17.81657379 23.90665894 -17.82722473 24.63079834 C-17.85665027 26.94680782 -17.85815175 29.2619433 -17.859375 31.578125 C-17.87435693 33.18668281 -17.89108412 34.79522523 -17.90948486 36.40374756 C-17.95316964 40.63204658 -17.9731598 44.86013809 -17.98822021 49.08862305 C-18.00778736 53.40556107 -18.04975776 57.72227487 -18.08984375 62.0390625 C-18.16515801 70.50514968 -18.21544191 78.97114883 -18.25 87.4375 C-18.58 87.4375 -18.91 87.4375 -19.25 87.4375 C-19.58 63.6775 -19.91 39.9175 -20.25 15.4375 C-20.91 15.7675 -21.57 16.0975 -22.25 16.4375 C-22.70375 15.9425 -23.1575 15.4475 -23.625 14.9375 C-25.12635519 13.21140663 -25.12635519 13.21140663 -27.25 13.4375 C-27.188125 14.860625 -27.188125 14.860625 -27.125 16.3125 C-27.25 19.4375 -27.25 19.4375 -29.25 21.4375 C-29.66453737 14.66672297 -28.37084894 10.04311442 -24.0625 4.75 C-16.8776473 -1.15754555 -8.90029713 -4.278989 0 0 Z " fill="#EA6844" transform="translate(628.25,430.5625)"/>
<path d="M0 0 C0.98226563 -0.00257813 1.96453125 -0.00515625 2.9765625 -0.0078125 C5.375 0.125 5.375 0.125 6.375 1.125 C6.46200342 2.75972882 6.48201063 4.39814055 6.47265625 6.03515625 C6.46943359 7.02451172 6.46621094 8.01386719 6.46289062 9.03320312 C6.45451172 10.07412109 6.44613281 11.11503906 6.4375 12.1875 C6.43298828 13.23228516 6.42847656 14.27707031 6.42382812 15.35351562 C6.41199913 17.9440666 6.39551689 20.53450559 6.375 23.125 C-1.70192308 27.97115385 -1.70192308 27.97115385 -7.625 27.125 C-10.92717457 25.81216792 -13.85415207 24.34913724 -15.80078125 21.2578125 C-17.22893671 17.56220642 -17.17927834 14.01846739 -16.625 10.125 C-12.76717575 2.68491038 -8.24968501 -0.02176698 0 0 Z " fill="#F2F2F2" transform="translate(432.625,516.875)"/>
<path d="M0 0 C1.1875 2.1875 1.1875 2.1875 2 5 C1.1875 7.625 1.1875 7.625 -1 10 C-3.22483032 10.95654893 -5.44711232 11.64578808 -7.7734375 12.31640625 C-10.49637729 13.15239654 -12.69067258 14.34017091 -15 16 C-15.33 16.66 -15.66 17.32 -16 18 C-16.66 18 -17.32 18 -18 18 C-17.97679687 18.98742187 -17.95359375 19.97484375 -17.9296875 20.9921875 C-17.90261719 22.91417969 -17.90261719 22.91417969 -17.875 24.875 C-17.85179687 26.15117188 -17.82859375 27.42734375 -17.8046875 28.7421875 C-18 32 -18 32 -20 34 C-22.66420516 34 -24.52260646 33.90837763 -27 33 C-29.08486175 26.74541476 -29.21691582 18.71711522 -26.5 12.625 C-23.32304734 7.30754732 -18.62794841 3.31397421 -13.125 0.5625 C-8.73498339 -0.22770299 -4.44694437 -0.1581917 0 0 Z " fill="#F0653F" transform="translate(589,489)"/>
<path d="M0 0 C-0.66 2.64 -1.32 5.28 -2 8 C-9.6287881 10.26437527 -16.69580573 11.29969807 -24.625 11.3125 C-25.40665527 11.31765625 -26.18831055 11.3228125 -26.99365234 11.328125 C-30.83642929 11.28106716 -32.73436289 11.17709141 -36 9 C-38.11280345 8.36707617 -38.11280345 8.36707617 -40 8 C-40 5 -40 5 -38 3 C-38.99 2.34 -39.98 1.68 -41 1 C-39.82026611 1.01571045 -39.82026611 1.01571045 -38.61669922 1.03173828 C-35.03616561 1.07343991 -31.45568324 1.09937139 -27.875 1.125 C-26.01875 1.15013672 -26.01875 1.15013672 -24.125 1.17578125 C-22.32675781 1.18544922 -22.32675781 1.18544922 -20.4921875 1.1953125 C-19.39245605 1.20578613 -18.29272461 1.21625977 -17.15966797 1.22705078 C-0.02467277 -0.00425393 -0.02467277 -0.00425393 0 0 Z " fill="#F2643E" transform="translate(610,554)"/>
<path d="M0 0 C1.24523437 0.01804687 2.49046875 0.03609375 3.7734375 0.0546875 C5.18496094 0.08949219 5.18496094 0.08949219 6.625 0.125 C7.25 2.9375 7.25 2.9375 7.625 6.125 C5.625 9.125 5.625 9.125 2.9375 9.75 C1.2978125 9.935625 1.2978125 9.935625 -0.375 10.125 C-5.59613705 10.80149284 -10.29970197 11.87392431 -15.25390625 13.63671875 C-17.69617462 14.19893522 -19.03789442 13.97712165 -21.375 13.125 C-23.125 11.75 -23.125 11.75 -24.375 10.125 C-24.375 9.135 -24.375 8.145 -24.375 7.125 C-18.75 6 -18.75 6 -15.375 7.125 C-15.065625 5.949375 -15.065625 5.949375 -14.75 4.75 C-13.375 2.125 -13.375 2.125 -10.75 0.96875 C-7.03243179 0.03935795 -3.82627668 -0.0721939 0 0 Z " fill="#F1653E" transform="translate(581.375,460.875)"/>
<path d="M0 0 C5.74939776 5.0960571 10.40400441 9.83098161 11.00396729 17.81877136 C11.00555847 19.1098732 11.00714966 20.40097504 11.00878906 21.73120117 C11.0122937 22.44738617 11.01579834 23.16357117 11.01940918 23.90145874 C11.02818619 26.26122841 11.02238856 28.62069619 11.015625 30.98046875 C11.01697355 32.63088539 11.01891567 34.28130164 11.02142334 35.93171692 C11.02436977 39.39079572 11.02009518 42.84977113 11.01074219 46.30883789 C10.99939266 50.71893983 11.00588148 55.12879708 11.01788712 59.53888988 C11.02515701 62.94920146 11.02279362 66.35945627 11.01763153 69.76976967 C11.01630685 71.39429059 11.01790086 73.01881684 11.02259064 74.64333153 C11.04159538 83.08229282 10.97240259 91.22308499 8.75 99.4375 C8.42 99.4375 8.09 99.4375 7.75 99.4375 C7.75222061 98.40068588 7.75444122 97.36387177 7.75672913 96.29563904 C7.77702491 86.51158511 7.79200315 76.72753546 7.80181217 66.94346523 C7.80702464 61.91371723 7.81409256 56.88398625 7.82543945 51.85424805 C7.83632649 46.99780676 7.84228916 42.14138183 7.84487724 37.28492928 C7.84672101 35.43463954 7.85032141 33.58435067 7.85573006 31.73406792 C7.86301769 29.1370642 7.86398769 26.54012758 7.86352539 23.94311523 C7.8689183 22.80267258 7.8689183 22.80267258 7.87442017 21.63919067 C7.86578229 17.13753033 7.48766948 12.87993593 6.75 8.4375 C5.43 8.4375 4.11 8.4375 2.75 8.4375 C2.75 7.1175 2.75 5.7975 2.75 4.4375 C2.13125 4.9325 1.5125 5.4275 0.875 5.9375 C-1.25 7.4375 -1.25 7.4375 -3.25 7.4375 C-3.064375 6.633125 -2.87875 5.82875 -2.6875 5 C-2.543125 4.154375 -2.39875 3.30875 -2.25 2.4375 C-3.28949859 1.17610602 -3.28949859 1.17610602 -5.578125 1.3046875 C-7.02445313 1.30855469 -7.02445313 1.30855469 -8.5 1.3125 C-9.93085937 1.30863281 -9.93085937 1.30863281 -11.390625 1.3046875 C-14.11463928 1.43121275 -16.59675009 1.82744619 -19.25 2.4375 C-19.25 3.0975 -19.25 3.7575 -19.25 4.4375 C-21.25 6.0625 -21.25 6.0625 -23.25 7.4375 C-23.91 7.1075 -24.57 6.7775 -25.25 6.4375 C-18.58265927 -1.03800324 -9.39142666 -4.51510897 0 0 Z " fill="#DF6E4F" transform="translate(628.25,430.5625)"/>
<path d="M0 0 C-0.33 0.99 -0.66 1.98 -1 3 C-0.34 3.33 0.32 3.66 1 4 C0.34 4 -0.32 4 -1 4 C-1.33 5.32 -1.66 6.64 -2 8 C-5.07617188 8.29296875 -5.07617188 8.29296875 -8.15234375 8.5859375 C-8.76207031 8.72257812 -9.37179687 8.85921875 -10 9 C-10.33 9.66 -10.66 10.32 -11 11 C-11.33 9.68 -11.66 8.36 -12 7 C-12.99 7 -13.98 7 -15 7 C-15.309375 7.639375 -15.61875 8.27875 -15.9375 8.9375 C-17 11 -17 11 -18 12 C-17.34 12.66 -16.68 13.32 -16 14 C-16.928125 14.268125 -17.85625 14.53625 -18.8125 14.8125 C-21.85688595 15.946683 -22.89711622 16.69684158 -25 19 C-25.99 19.33 -26.98 19.66 -28 20 C-28.66 19.67 -29.32 19.34 -30 19 C-30.625 16.4375 -30.625 16.4375 -31 14 C-30.34 14 -29.68 14 -29 14 C-29 13.01 -29 12.02 -29 11 C-28.41992188 10.84144531 -27.83984375 10.68289063 -27.2421875 10.51953125 C-21.72441313 8.87148313 -18.17846247 6.96418234 -14 3 C-13.34 3.66 -12.68 4.32 -12 5 C-11.01 5 -10.02 5 -9 5 C-9 4.34 -9 3.68 -9 3 C-9.66 2.67 -10.32 2.34 -11 2 C-7.36576791 -0.32590854 -4.22911669 -0.16265833 0 0 Z " fill="#F3633C" transform="translate(566,435)"/>
<path d="M0 0 C-0.3125 2.875 -0.3125 2.875 -1 6 C-5.1315287 8.75435247 -9.12281159 8.38544151 -13.93164062 8.47851562 C-20.41247414 8.72707893 -24.93924342 10.91246584 -30 15 C-27.25420857 8.51376819 -20.32054376 4.57981378 -14 2 C-9.35021577 0.68449165 -4.86012664 -0.31355656 0 0 Z " fill="#101010" transform="translate(723,460)"/>
<path d="M0 0 C0.99 0 1.98 0 3 0 C4.12178787 3.3653636 4.16771159 6.0203755 4.1875 9.5625 C4.20167969 10.71878906 4.21585938 11.87507812 4.23046875 13.06640625 C4 16 4 16 2 18 C-1 18 -1 18 -4 17 C-4.50604984 10.01370081 -4.0333905 5.79799884 0 0 Z " fill="#F3643B" transform="translate(567,505)"/>
<path d="M0 0 C0.33 0 0.66 0 1 0 C1 22.44 1 44.88 1 68 C0.34 68 -0.32 68 -1 68 C-1 68.66 -1 69.32 -1 70 C-2.98 70.495 -2.98 70.495 -5 71 C-4.515811 70.14711395 -4.03162201 69.29422791 -3.53276062 68.41549683 C-1.89530189 64.76669804 -1.57631636 62.32512358 -1.47583008 58.35205078 C-1.43601517 57.05115509 -1.39620026 55.7502594 -1.35517883 54.40994263 C-1.32632591 53.00507212 -1.29778391 51.6001952 -1.26953125 50.1953125 C-1.23021008 48.74653791 -1.18963843 47.29779676 -1.14787292 45.84909058 C-1.04173868 42.05179554 -0.95251255 38.25428728 -0.86688232 34.45648193 C-0.77634313 30.57488084 -0.66970749 26.69372501 -0.56445312 22.8125 C-0.3606064 15.20867691 -0.17463221 7.60455611 0 0 Z " fill="#E0765A" transform="translate(598,453)"/>
<path d="M0 0 C0.66 0 1.32 0 2 0 C-0.42738502 8.01641745 -3.86003924 15.44060924 -7.4375 23 C-8.58362273 25.43675519 -9.72721778 27.87468839 -10.87109375 30.3125 C-11.40847168 31.45589844 -11.94584961 32.59929688 -12.49951172 33.77734375 C-14.38613376 37.8293143 -16.20481468 41.90680104 -18 46 C-18.66 45.67 -19.32 45.34 -20 45 C-18.6271808 40.67131286 -16.99489006 36.56439004 -15.13671875 32.421875 C-14.86285843 31.81039612 -14.58899811 31.19891724 -14.30683899 30.56890869 C-13.72913991 29.28083039 -13.15003079 27.99338364 -12.56958008 26.70654297 C-11.69691114 24.77087486 -10.82955921 22.8328921 -9.96289062 20.89453125 C-6.80144342 13.84741375 -3.53434678 6.86971697 0 0 Z " fill="#111111" transform="translate(755,492)"/>
<path d="M0 0 C-0.33 0.99 -0.66 1.98 -1 3 C-1.66 3 -2.32 3 -3 3 C-4.74268681 6.32927047 -4.74268681 6.32927047 -4.375 9.875 C-3.83428072 12.9390759 -5.41965643 14.40430104 -7.0078125 16.91796875 C-8.81922384 20.71907995 -8.83279718 24.84501 -9 29 C-12.2658373 24.10124406 -11.54881227 18.72526377 -11 13 C-9.58589622 8.19204715 -5.63635512 0 0 0 Z " fill="#E66A49" transform="translate(572,493)"/>
<path d="M0 0 C0.99 0 1.98 0 3 0 C3.66 0.66 4.32 1.32 5 2 C6.9931567 2.02375926 6.9931567 2.02375926 9.125 1.625 C11.043125 1.315625 11.043125 1.315625 13 1 C10.79377402 3.20622598 9.34427562 3.71284062 6.4375 4.75 C1.74198553 6.54915213 -2.11980306 8.89357221 -6.1875 11.828125 C-8 13 -8 13 -10 13 C-10 12.34 -10 11.68 -10 11 C-9.34 11 -8.68 11 -8 11 C-7.67 10.01 -7.34 9.02 -7 8 C-5.35 7.67 -3.7 7.34 -2 7 C-2.66 6.34 -3.32 5.68 -4 5 C-2.1875 2.5 -2.1875 2.5 0 0 Z " fill="#EB6745" transform="translate(551,442)"/>
<path d="M0 0 C13.10679612 1.10679612 13.10679612 1.10679612 16 4 C18.8863134 4.12794998 21.73813444 4.18522688 24.625 4.1875 C25.42035156 4.19974609 26.21570313 4.21199219 27.03515625 4.22460938 C32.1059161 4.23709893 36.17988085 3.54997526 41 2 C43.9375 1.875 43.9375 1.875 46 2 C39.15926708 5.68347157 33.0866797 6.38671291 25.4375 6.375 C23.97727417 6.3747583 23.97727417 6.3747583 22.48754883 6.37451172 C14.88574029 6.25459942 7.9190776 5.41590498 1 2 C0.67 1.34 0.34 0.68 0 0 Z " fill="#DD6C4B" transform="translate(561,560)"/>
<path d="M0 0 C0.66 0.33 1.32 0.66 2 1 C1.67 1.66 1.34 2.32 1 3 C0.01 3 -0.98 3 -2 3 C-2.33 3.99 -2.66 4.98 -3 6 C-4.7421875 6.6953125 -4.7421875 6.6953125 -6.875 7.125 C-9.343396 7.64418292 -11.59497667 8.19832556 -14 9 C-15.84610532 9.08239169 -17.69505164 9.10743359 -19.54296875 9.09765625 C-20.61611328 9.09443359 -21.68925781 9.09121094 -22.79492188 9.08789062 C-23.91447266 9.07951172 -25.03402344 9.07113281 -26.1875 9.0625 C-27.31865234 9.05798828 -28.44980469 9.05347656 -29.61523438 9.04882812 C-32.41020927 9.03703498 -35.2050782 9.0205765 -38 9 C-38 8.67 -38 8.34 -38 8 C-37.38592285 7.98541748 -36.7718457 7.97083496 -36.13916016 7.95581055 C-33.30054015 7.88038055 -30.46297742 7.78404224 -27.625 7.6875 C-26.65949219 7.66494141 -25.69398438 7.64238281 -24.69921875 7.61914062 C-15.47913032 7.27880179 -7.42489548 5.6663676 0 0 Z " fill="#FCD7C9" transform="translate(613,558)"/>
<path d="M0 0 C0.1875 2.875 0.1875 2.875 0 6 C-0.99 6.66 -1.98 7.32 -3 8 C-3 5.36 -3 2.72 -3 0 C-10.3620694 0.4859793 -17.69100518 0.97674072 -25 2 C-19.52311816 -3.47688184 -6.53539084 -3.69264236 0 0 Z " fill="#DC7254" transform="translate(591,461)"/>
<path d="M0 0 C0.66 0 1.32 0 2 0 C1.67 13.2 1.34 26.4 1 40 C0.67 40 0.34 40 0 40 C-0.16811151 35.10723085 -0.32861689 30.2142924 -0.48217773 25.32104492 C-0.53544145 23.65756573 -0.5907578 21.99415092 -0.64819336 20.33081055 C-0.73054248 17.93552527 -0.80542899 15.54010311 -0.87890625 13.14453125 C-0.90594131 12.4047554 -0.93297638 11.66497955 -0.96083069 10.90278625 C-1.06955378 7.11382329 -0.93831637 3.68060123 0 0 Z " fill="#FEDED1" transform="translate(597,445)"/>
<path d="M0 0 C0.99 0.66 1.98 1.32 3 2 C3 2.66 3 3.32 3 4 C1.15535156 3.96519531 1.15535156 3.96519531 -0.7265625 3.9296875 C-2.3593689 3.91091961 -3.9921819 3.89272051 -5.625 3.875 C-6.43324219 3.85824219 -7.24148438 3.84148437 -8.07421875 3.82421875 C-12.84791396 3.78540822 -16.47656298 4.31531818 -21 6 C-22.32 6 -23.64 6 -25 6 C-25 5.34 -25 4.68 -25 4 C-23.865625 3.855625 -22.73125 3.71125 -21.5625 3.5625 C-18.19222799 3.38828522 -18.19222799 3.38828522 -17 2 C-14.71195833 1.78933632 -12.41896178 1.63135159 -10.125 1.5 C-4.97268808 1.22167685 -4.97268808 1.22167685 0 0 Z " fill="#FEE1D3" transform="translate(586,427)"/>
<path d="M0 0 C3 1 3 1 5 4 C4.625 6.6875 4.625 6.6875 4 9 C3.13375 8.2265625 3.13375 8.2265625 2.25 7.4375 C0.12172477 5.73494807 0.12172477 5.73494807 -2.25 6.3125 C-2.8275 6.539375 -3.405 6.76625 -4 7 C-3.39816251 4.97954558 -2.72693904 2.97888961 -2 1 C-1.34 0.67 -0.68 0.34 0 0 Z " fill="#F5633C" transform="translate(544,532)"/>
<path d="M0 0 C1.03274898 2.68514734 1.07566569 3.7921588 0.07421875 6.54296875 C-0.38339844 7.41566406 -0.84101562 8.28835938 -1.3125 9.1875 C-1.76238281 10.06792969 -2.21226562 10.94835937 -2.67578125 11.85546875 C-4 14 -4 14 -6 15 C-6.55199214 9.3420806 -5.0142776 6.61007163 -2 2 C-1.34 1.34 -0.68 0.68 0 0 Z " fill="#E77051" transform="translate(635,530)"/>
<path d="M0 0 C0.99 0.33 1.98 0.66 3 1 C-0.465 8.425 -0.465 8.425 -4 16 C-4.66 15.67 -5.32 15.34 -6 15 C-4.40109514 9.80355921 -2.25861997 4.93387858 0 0 Z " fill="#1A1A1A" transform="translate(741,522)"/>
<path d="M0 0 C0.77321882 2.98241547 1.41196203 5.97580475 2 9 C1.01 9.495 1.01 9.495 0 10 C-0.165 11.155 -0.33 12.31 -0.5 13.5 C-0.665 14.655 -0.83 15.81 -1 17 C-1.66 17.33 -2.32 17.66 -3 18 C-2.88521587 15.93690624 -2.75773802 13.87451646 -2.625 11.8125 C-2.55539062 10.66394531 -2.48578125 9.51539063 -2.4140625 8.33203125 C-2.02490426 5.20040883 -1.3190149 2.84714191 0 0 Z " fill="#E26A4B" transform="translate(506,486)"/>
<path d="M0 0 C0.66 0.33 1.32 0.66 2 1 C1.01 2.2684375 1.01 2.2684375 0 3.5625 C-2.30193306 7.51894745 -2.49103778 9.49882036 -2 14 C-1.1025173 16.83378132 -1.1025173 16.83378132 0 19 C-1.65 19 -3.3 19 -5 19 C-4.67 14.05 -4.34 9.1 -4 4 C-3.34 4 -2.68 4 -2 4 C-1.34 2.68 -0.68 1.36 0 0 Z " fill="#E26E52" transform="translate(575,503)"/>
<path d="M0 0 C-0.66 0.66 -1.32 1.32 -2 2 C-2 2.66 -2 3.32 -2 4 C-3.32 4.33 -4.64 4.66 -6 5 C-6.33 4.34 -6.66 3.68 -7 3 C-9.97 5.475 -9.97 5.475 -13 8 C-12.49396008 5.83125748 -12.00016187 4.00032373 -11 2 C-3.79570747 -1.67011129 -3.79570747 -1.67011129 0 0 Z " fill="#E96846" transform="translate(559,436)"/>
<path d="M0 0 C1.9375 1.5 1.9375 1.5 3 3 C1.72125 2.95875 0.4425 2.9175 -0.875 2.875 C-3.01871492 2.75787127 -3.01871492 2.75787127 -5 3 C-5.66 3.66 -6.32 4.32 -7 5 C-8.32 5 -9.64 5 -11 5 C-9.10549707 -0.68350879 -5.35990864 -0.47856327 0 0 Z " fill="#FEE4D6" transform="translate(622,441)"/>
<path d="M0 0 C-1.24853673 0.79397239 -2.49890043 1.58507217 -3.75 2.375 C-4.44609375 2.81585938 -5.1421875 3.25671875 -5.859375 3.7109375 C-7.86517383 4.91880906 -9.89178296 5.98387737 -12 7 C-12 7.99 -12 8.98 -12 10 C-12.66 10 -13.32 10 -14 10 C-12.56314642 4.97101246 -10.05763331 3.04322498 -6 0 C-3.50907189 -1.24546405 -2.58919267 -0.7767578 0 0 Z " fill="#FEE3D5" transform="translate(587,500)"/>
<path d="M0 0 C0.66 0.33 1.32 0.66 2 1 C-0.1772135 6.20112114 -2.60708214 8.68090651 -7 12 C-7 8.19654123 -5.86213669 7.22298985 -3.5 4.3125 C-2.8503125 3.50425781 -2.200625 2.69601562 -1.53125 1.86328125 C-1.0259375 1.24839844 -0.520625 0.63351562 0 0 Z " fill="#FEDFD0" transform="translate(532,463)"/>
<path d="M0 0 C0.33 0 0.66 0 1 0 C0.91231752 1.5843317 0.80412671 3.16753567 0.6875 4.75 C0.62949219 5.63171875 0.57148437 6.5134375 0.51171875 7.421875 C-0.0641181 10.32303774 -1.07596148 11.79225607 -3 14 C-3.99 13.67 -4.98 13.34 -6 13 C-5.47599609 11.96939453 -5.47599609 11.96939453 -4.94140625 10.91796875 C-4.48636719 10.01691406 -4.03132812 9.11585938 -3.5625 8.1875 C-3.11003906 7.29417969 -2.65757812 6.40085937 -2.19140625 5.48046875 C-0.9168395 2.96000522 -0.9168395 2.96000522 0 0 Z " fill="#E67152" transform="translate(626,524)"/>
<path d="M0 0 C3.3 0 6.6 0 10 0 C11.125 2.3125 11.125 2.3125 12 5 C11.01 6.485 11.01 6.485 10 8 C10 6.02 10 4.04 10 2 C9.01 2 8.02 2 7 2 C7 2.99 7 3.98 7 5 C6.01 5 5.02 5 4 5 C4 4.01 4 3.02 4 2 C2.68 1.34 1.36 0.68 0 0 Z " fill="#DE6C4B" transform="translate(579,489)"/>
<path d="M0 0 C0 0.66 0 1.32 0 2 C-0.99580078 2.07347656 -0.99580078 2.07347656 -2.01171875 2.1484375 C-8.7112236 2.71125812 -8.7112236 2.71125812 -15 5 C-15.66 4.34 -16.32 3.68 -17 3 C-15.1096624 2.29753005 -13.21243172 1.61359151 -11.3125 0.9375 C-10.25675781 0.55464844 -9.20101562 0.17179687 -8.11328125 -0.22265625 C-4.90666208 -1.0233052 -3.1313693 -0.9237249 0 0 Z " fill="#E06B4C" transform="translate(576,431)"/>
<path d="M0 0 C-1.33912585 4.38259368 -3.12225036 6.54093925 -7 9 C-7.99 8.67 -8.98 8.34 -10 8 C-8.71451591 6.66070495 -7.42141845 5.32871357 -6.125 4 C-5.04605469 2.88625 -5.04605469 2.88625 -3.9453125 1.75 C-2 0 -2 0 0 0 Z " fill="#FEDFD7" transform="translate(560,479)"/>
<path d="M0 0 C0.66 0.33 1.32 0.66 2 1 C1.67 1.66 1.34 2.32 1 3 C1.66 3 2.32 3 3 3 C3 3.99 3 4.98 3 6 C2.34 6 1.68 6 1 6 C0.67 6.66 0.34 7.32 0 8 C-0.66 7.34 -1.32 6.68 -2 6 C-2.99 6.33 -3.98 6.66 -5 7 C-4.1875 5.0625 -4.1875 5.0625 -3 3 C-2.01 2.67 -1.02 2.34 0 2 C0 1.34 0 0.68 0 0 Z " fill="#EB6F4F" transform="translate(527,453)"/>
<path d="M0 0 C1 3 1 3 0.328125 5.0078125 C-0.02765625 5.70648437 -0.3834375 6.40515625 -0.75 7.125 C-1.26820313 8.18074219 -1.26820313 8.18074219 -1.796875 9.2578125 C-3 11 -3 11 -6 12 C-3.45454545 4.18181818 -3.45454545 4.18181818 -2 1 C-1.34 0.67 -0.68 0.34 0 0 Z " fill="#141414" transform="translate(727,555)"/>
<path d="M0 0 C0.33 0 0.66 0 1 0 C1 6.27 1 12.54 1 19 C0.01 18.67 -0.98 18.34 -2 18 C-1.85946128 15.37461716 -1.71281053 12.74982573 -1.5625 10.125 C-1.52318359 9.37863281 -1.48386719 8.63226563 -1.44335938 7.86328125 C-1.11328125 2.2265625 -1.11328125 2.2265625 0 0 Z " fill="#FEEBE0" transform="translate(502,498)"/>
<path d="M0 0 C0 0.33 0 0.66 0 1 C-4.95 1.66 -9.9 2.32 -15 3 C-15 2.34 -15 1.68 -15 1 C-9.675665 -1.32086397 -5.56157448 -0.91457003 0 0 Z " fill="#FEDED0" transform="translate(588,488)"/>
<path d="M0 0 C0.33 0 0.66 0 1 0 C1 1.98 1 3.96 1 6 C0.34 6 -0.32 6 -1 6 C-0.95875 6.94875 -0.9175 7.8975 -0.875 8.875 C-1 12 -1 12 -3 14 C-3.34615998 8.34605369 -2.43425238 4.96993194 0 0 Z " fill="#E06B4C" transform="translate(602,438)"/>
<path d="M0 0 C1.27310312 0.93441535 2.543388 1.87267111 3.8125 2.8125 C4.52019531 3.33457031 5.22789062 3.85664062 5.95703125 4.39453125 C7.78531393 5.83128877 9.39896688 7.31815763 11 9 C8.03 8.505 8.03 8.505 5 8 C4.67 7.01 4.34 6.02 4 5 C3.01 4.67 2.02 4.34 1 4 C0.3125 1.9375 0.3125 1.9375 0 0 Z " fill="#FEE6DB" transform="translate(546,550)"/>
<path d="M0 0 C0.99 0.66 1.98 1.32 3 2 C2.814375 2.598125 2.62875 3.19625 2.4375 3.8125 C1.77906313 6.16408762 1.77906313 6.16408762 3 9 C-0.65316671 7.75023244 -1.78065836 7.32901247 -4 4 C-2.68 4.33 -1.36 4.66 0 5 C0 3.35 0 1.7 0 0 Z " fill="#E86C48" transform="translate(553,548)"/>
<path d="M0 0 C0.66 0 1.32 0 2 0 C2.09038099 5.15171623 1.84681133 9.91913204 1 15 C0.67 15 0.34 15 0 15 C-1.33257403 4.44191344 -1.33257403 4.44191344 0 0 Z " fill="#FEE8D9" transform="translate(597,445)"/>
<path d="M0 0 C0.33 0.66 0.66 1.32 1 2 C-0.65 4.31 -2.3 6.62 -4 9 C-5.32 8.67 -6.64 8.34 -8 8 C-5.33333333 5.33333333 -2.66666667 2.66666667 0 0 Z " fill="#E26E4F" transform="translate(619,538)"/>
<path d="M0 0 C0.66 0 1.32 0 2 0 C1.01 2.97 0.02 5.94 -1 9 C-1.99 9 -2.98 9 -4 9 C-2.94124926 5.59687262 -1.99097846 2.98646769 0 0 Z " fill="#1A1A1A" transform="translate(755,492)"/>
<path d="M0 0 C0.99 0.33 1.98 0.66 3 1 C2 4 2 4 0.4375 5.1875 C-3.11122383 6.37040794 -6.26701621 6.12443279 -10 6 C-10 5.67 -10 5.34 -10 5 C-9.36191406 4.89042969 -8.72382812 4.78085937 -8.06640625 4.66796875 C-7.24011719 4.50941406 -6.41382813 4.35085938 -5.5625 4.1875 C-4.32693359 3.96126953 -4.32693359 3.96126953 -3.06640625 3.73046875 C-2.38449219 3.48941406 -1.70257812 3.24835937 -1 3 C-0.67 2.01 -0.34 1.02 0 0 Z " fill="#FEE5DB" transform="translate(591,520)"/>
<path d="M0 0 C1.134375 0.020625 2.26875 0.04125 3.4375 0.0625 C0.3120041 2.70715038 -2.65038267 3.90664715 -6.5625 5.0625 C-4.14811644 0.07277397 -4.14811644 0.07277397 0 0 Z " fill="#FEE3D4" transform="translate(551.5625,434.9375)"/>
<path d="M0 0 C0.66 0 1.32 0 2 0 C2 0.66 2 1.32 2 2 C2.66 2.33 3.32 2.66 4 3 C2.35 4.32 0.7 5.64 -1 7 C-2 4 -2 4 -1.0625 1.8125 C-0.5365625 0.9153125 -0.5365625 0.9153125 0 0 Z " fill="#E76D4D" transform="translate(622,546)"/>
<path d="M0 0 C1.2065625 0.0309375 1.2065625 0.0309375 2.4375 0.0625 C0.79580472 2.08304804 -0.87161778 4.08293058 -2.5625 6.0625 C-2.8925 6.0625 -3.2225 6.0625 -3.5625 6.0625 C-3.605221 4.39638095 -3.60313832 2.72867115 -3.5625 1.0625 C-2.5625 0.0625 -2.5625 0.0625 0 0 Z " fill="#E77253" transform="translate(603.5625,526.9375)"/>
<path d="M0 0 C1.25460729 2.50921458 0.86211613 3.38830225 0.1875 6.0625 C0.01605469 6.77535156 -0.15539062 7.48820312 -0.33203125 8.22265625 C-1 10 -1 10 -3 11 C-2.25 3.375 -2.25 3.375 0 0 Z " fill="#FFDFD1" transform="translate(547,493)"/>
<path d="M0 0 C2.64 0 5.28 0 8 0 C8.33 0.99 8.66 1.98 9 3 C5.7 2.67 2.4 2.34 -1 2 C-0.67 1.34 -0.34 0.68 0 0 Z " fill="#FEECE0" transform="translate(580,457)"/>
<path d="M0 0 C-1.28813342 0.83878455 -2.58063256 1.67086783 -3.875 2.5 C-4.59429688 2.9640625 -5.31359375 3.428125 -6.0546875 3.90625 C-8 5 -8 5 -10 5 C-10 4.34 -10 3.68 -10 3 C-9.34 3 -8.68 3 -8 3 C-7.67 2.01 -7.34 1.02 -7 0 C-2.25 -1.125 -2.25 -1.125 0 0 Z " fill="#DB6D4B" transform="translate(551,450)"/>
<path d="M0 0 C0.66 0.33 1.32 0.66 2 1 C1.67 1.66 1.34 2.32 1 3 C0.01 3 -0.98 3 -2 3 C-2.33 3.99 -2.66 4.98 -3 6 C-3.99 6 -4.98 6 -6 6 C-5 3 -5 3 -2.5625 1.25 C-1.716875 0.8375 -0.87125 0.425 0 0 Z " fill="#FFE4D5" transform="translate(613,558)"/>
<path d="M0 0 C2.86477034 1.05041579 3.83913226 1.70124563 5.3125 4.4375 C6 7 6 7 5 10 C4.1641146 8.52227402 3.33135744 7.04277811 2.5 5.5625 C2.0359375 4.73878906 1.571875 3.91507813 1.09375 3.06640625 C0 1 0 1 0 0 Z " fill="#E07052" transform="translate(563,522)"/>
<path d="M0 0 C-0.33 0.99 -0.66 1.98 -1 3 C-1.66 3 -2.32 3 -3 3 C-3.33 3.99 -3.66 4.98 -4 6 C-6.0625 7.1875 -6.0625 7.1875 -8 8 C-6.48291727 4.46014029 -4.24676932 0 0 0 Z " fill="#DF714F" transform="translate(572,493)"/>
<path d="M0 0 C0.33 0 0.66 0 1 0 C1.33 2.31 1.66 4.62 2 7 C1.01 7.33 0.02 7.66 -1 8 C-1.625 5.6875 -1.625 5.6875 -2 3 C-1.34 2.01 -0.68 1.02 0 0 Z " fill="#E86847" transform="translate(540,483)"/>
<path d="M0 0 C0.66 0 1.32 0 2 0 C1.25 6.75 1.25 6.75 -1 9 C-1.33 7.68 -1.66 6.36 -2 5 C-1.34 5 -0.68 5 0 5 C0 3.35 0 1.7 0 0 Z " fill="#E47357" transform="translate(607,518)"/>
</svg>
