<svg xmlns="http://www.w3.org/2000/svg" xmlns:xlink="http://www.w3.org/1999/xlink" xmlns:inkscape="http://www.inkscape.org/namespaces/inkscape" version="1.1" width="1080" height="1080" viewBox="0 0 1080 1080">
<defs>
<clipPath id="clip_0">
<path transform="matrix(1,0,0,-1,0,1080)" d="M0 1080H1080V0H0Z"/>
</clipPath>
</defs>
<g inkscape:groupmode="layer" inkscape:label="Layer 1">
<text xml:space="preserve" transform="matrix(.99461039 0 -0 1.0054189 0 1080)" font-size="233.73343" font-family="Jekaterina"><tspan y="-518.36679" x="147.13822 310.51789 426.6834 504.5166 579.0776 653.63858 728.1995 806.0328 853.48068">Car   rly</tspan></text>
<g clip-path="url(#clip_0)">
<path transform="matrix(1,0,0,-1,700.0762,510.10639)" stroke-width="18" stroke-linecap="butt" stroke-miterlimit="10" stroke-linejoin="miter" fill="none" stroke="#f15a24" d="M0 0C-.109-3.099-1.222-8.409-1.086-7.75-.881-6.749-1.595-9.729-1.729-10.742-6.481-46.39-36.992-73.894-73.94-73.894-114.185-73.894-146.809-41.27-146.809-1.025"/>
<path transform="matrix(1,0,0,-1,619.3984,583.6885)" stroke-width="18" stroke-linecap="butt" stroke-miterlimit="10" stroke-linejoin="miter" fill="none" stroke="#f15a24" d="M0 0C-3.221 .348-6.252 1.232-9.046 2.517-44.979 10.461-69.969 43.95-65.978 80.918-61.691 120.62-29.864 148.959 10.357 144.617"/>
<path transform="matrix(1,0,0,-1,601.9336,399.76124)" stroke-width="18" stroke-linecap="butt" stroke-miterlimit="10" stroke-linejoin="miter" fill="none" stroke="#f15a24" d="M0 0C-13.647-.855 27.656 1.765 24.78 1.582"/>
<path transform="matrix(1,0,0,-1,514.2041,515.8999)" stroke-width="18" stroke-linecap="butt" stroke-miterlimit="10" stroke-linejoin="miter" fill="none" stroke="#f15a24" d="M0 0C.926-12.577-.458 26.176-.261 23.525"/>
<path transform="matrix(1,0,0,-1,613.0049,485.8086)" stroke-width="18" stroke-linecap="butt" stroke-miterlimit="10" stroke-linejoin="miter" fill="none" stroke="#f15a24" d="M0 0C-10.309-3.066 18.187 5.43 16.04 4.79"/>
<path transform="matrix(1,0,0,-1,623.9736,542.1543)" stroke-width="18" stroke-linecap="butt" stroke-miterlimit="10" stroke-linejoin="miter" fill="none" stroke="#f15a24" d="M0 0C-1.451 .179-2.815 .575-4.073 1.133-20.256 4.789-31.466 18.807-29.608 33.932-27.133 54.085-13.224 56.054 4.689 60.46"/>
<path transform="matrix(1,0,0,-1,654.0801,501.44874)" stroke-width="18" stroke-linecap="butt" stroke-miterlimit="10" stroke-linejoin="miter" fill="none" stroke="#f15a24" d="M0 0C.302-1.488 .364-2.963 .233-4.384 1.982-21.528-7.961-37.153-23.261-40.258-39.691-43.594-56.069-31.229-59.843-12.641"/>
<path transform="matrix(1,0,0,-1,700.0762,510.75538)" stroke-width="18" stroke-linecap="butt" stroke-miterlimit="10" stroke-linejoin="miter" fill="none" stroke="#f15a24" d="M0 0V83.734C0 97.302-10.252 108.402-22.781 108.402-35.312 108.402-45.563 97.302-45.563 83.734V0"/>
<path transform="matrix(1,0,0,-1,514.5771,515.3613)" stroke-width="18" stroke-linecap="butt" stroke-miterlimit="10" stroke-linejoin="miter" fill="none" stroke="#f15a24" d="M0 0C-1.146 34.413 2.333 54.338 29.38 82.852 58.428 113.474 83.331 116.437 114.086 117.191"/>
<path transform="matrix(1,0,0,-1,612.3643,438.60249)" stroke-width="18" stroke-linecap="butt" stroke-miterlimit="10" stroke-linejoin="miter" fill="none" stroke="#f15a24" d="M0 0C-10.077 .341 20.426-.666 18.302-.596"/>
</g>
</g>
</svg>
