<?xml version="1.0" encoding="UTF-8"?>
<svg version="1.1" xmlns="http://www.w3.org/2000/svg" width="1080" height="1080">
<path d="M0 0 C7.65859996 5.16236687 12.55529547 12.12680592 15 21 C15.29292626 24.18707992 15.29380853 27.36038708 15.29052734 30.55932617 C15.29724457 31.50503983 15.30396179 32.45075348 15.31088257 33.42512512 C15.32985401 36.54779348 15.33378794 39.67024634 15.3359375 42.79296875 C15.34237161 44.98090195 15.34910043 47.16883431 15.35610962 49.35676575 C15.36808429 53.9490457 15.3717908 58.54125046 15.37060547 63.13354492 C15.37040356 68.96764476 15.39757184 74.80125044 15.43214989 80.63523388 C15.45460056 85.16109851 15.45843731 89.68684827 15.45738602 94.21276283 C15.45971991 96.36016842 15.46841589 98.50757827 15.48405075 100.65492821 C15.66727479 128.44746958 10.31605334 152.67529171 -9.6875 173.25 C-26.44168279 189.69878195 -47.28098104 196.45584106 -70.40795898 196.36132812 C-92.44391283 195.98786467 -111.56923013 186.82538124 -127.625 171.875 C-143.87191027 154.93054797 -150.51758382 133.39685525 -150.42407227 110.3828125 C-149.89822422 86.75683143 -139.85680587 66.29646883 -123 50 C-116.38013853 44.45251485 -108.8807619 40.46448953 -101 37 C-99.89140625 36.51015625 -98.7828125 36.0203125 -97.640625 35.515625 C-85.38011046 30.75062153 -70.56732477 29.54062669 -58 34 C-55.5625 35.625 -55.5625 35.625 -54 38 C-53.4168036 42.59267166 -53.40354893 44.83194999 -55.5 48.9375 C-59.67496885 52.3818493 -63.92759378 52.06256321 -69.10546875 51.90625 C-85.78300311 51.45397788 -100.69456374 56.28711623 -112.9375 67.80859375 C-124.61801263 80.21913842 -130.97945517 97.00942629 -131 114 C-129.95642618 131.66485872 -123.56102828 147.63006162 -110.55078125 159.875 C-96.84457816 171.29333764 -78.92923254 178.12453959 -60.9921875 176.7734375 C-44.55224749 174.58430711 -29.70557295 166.65204076 -19 154 C-5.46273772 136.09587892 -3.5186243 115.49642018 -3.6015625 93.87109375 C-3.59953554 91.98258858 -3.59661897 90.09408419 -3.59286499 88.20558167 C-3.58848059 84.2817527 -3.59475238 80.35813079 -3.60888672 76.43432617 C-3.62608342 71.41770173 -3.61604696 66.40155526 -3.59816933 61.38494778 C-3.58731652 57.49952096 -3.59078288 53.61420719 -3.5985527 49.72877693 C-3.60054506 47.87848922 -3.59812957 46.02819105 -3.59111404 44.17791557 C-3.58346285 41.59676787 -3.59514989 39.01639308 -3.61181641 36.43530273 C-3.60270737 35.30451294 -3.60270737 35.30451294 -3.59341431 34.15087891 C-3.66594393 28.06249197 -4.97004996 23.33751823 -9.0625 18.625 C-12.67964238 15.59126768 -15.325192 15.68306386 -20 16 C-23.68773373 17.67624261 -25.85783496 19.57253594 -28 23 C-29.30125213 26.90375639 -29.15266512 30.61784117 -29.15771484 34.68725586 C-29.16279556 35.57550049 -29.16787628 36.46374512 -29.17311096 37.37890625 C-29.18381811 39.31047006 -29.19243694 41.24204631 -29.19923019 43.17362785 C-29.21103234 46.2394796 -29.23049247 49.30519132 -29.25234985 52.37098694 C-29.31389456 61.08915477 -29.36784638 69.80731066 -29.40136719 78.52563477 C-29.42242453 83.8590093 -29.4578237 89.19213218 -29.50212479 94.52536201 C-29.51620645 96.55011576 -29.52498935 98.57491408 -29.52817917 100.59971428 C-29.55679564 117.03706142 -30.160854 131.41307891 -41.953125 144.1015625 C-49.38245788 150.97515788 -57.92732997 154.92003263 -68.109375 155.03515625 C-81.86253298 154.37332588 -91.47592388 149.0972579 -100.8125 139.125 C-108.94203858 129.42991223 -110.01989965 118.18180137 -109 106 C-107.24883761 96.47509647 -101.67574433 88.93847302 -93.75390625 83.44140625 C-84.55193999 78.4602407 -70.48966589 72.72333823 -60 75 C-56.79917022 77.02979449 -56.19922155 78.3311848 -55.125 81.9375 C-54.98378768 85.39720179 -55.20784323 87.03904533 -57 90 C-62.24524502 94.08408391 -67.42557692 95.46170238 -73.72265625 97.06640625 C-79.50679532 98.62884811 -84.27099434 100.57939208 -87.875 105.625 C-89.74871615 111.24614844 -90.08566138 116.06658552 -88.00390625 121.69140625 C-84.46339754 128.42138173 -80.14815257 131.60248299 -73 134 C-68.68590293 135.3225699 -65.07699658 135.35195693 -60.875 133.625 C-55.82712524 130.77748091 -52.08746842 125.66176097 -50.4380703 120.10785103 C-49.68889013 116.50304103 -49.84683871 112.8350727 -49.84228516 109.16748047 C-49.83720444 108.27587723 -49.83212372 107.38427399 -49.82688904 106.46565247 C-49.81619535 104.53028213 -49.80757125 102.5948995 -49.80076981 100.65951157 C-49.7889576 97.58992874 -49.76949679 94.52048514 -49.74765015 91.45095825 C-49.6861257 82.72353799 -49.63208543 73.99613127 -49.59863281 65.26855469 C-49.5776114 59.92755204 -49.54224517 54.58680242 -49.49787521 49.24594498 C-49.48377082 47.2167472 -49.47500542 45.18750464 -49.47182083 43.15826035 C-49.46687624 40.30820258 -49.44362632 37.45880818 -49.41650391 34.60888672 C-49.42101311 33.3678141 -49.42101311 33.3678141 -49.4256134 32.10166931 C-49.28242341 21.89800116 -46.18793902 12.66272808 -39.25 5.08984375 C-28.11059 -5.48810405 -13.59223133 -7.08887142 0 0 Z " fill="#F15A24" transform="translate(682,448)"/>
<path d="M0 0 C20.79695178 -0.66159044 42.76137083 4.97671071 58.25390625 19.37548828 C66.46819045 27.40331641 71.20085507 36.15181268 74.44921875 47.16015625 C67.21342762 49.11766496 59.46187761 51.09838572 52.45703125 47.71484375 C48.45710437 44.31750326 46.72690275 40.60070898 44.51171875 35.91015625 C38.97453752 24.28846121 32.29799927 15.81415902 19.88671875 11.41015625 C7.73510447 7.74604087 -3.84781306 8.24025171 -15.55078125 13.16015625 C-30.11123764 21.09848417 -38.6536208 34.82597016 -43.86328125 50.16015625 C-44.10578613 50.87099365 -44.34829102 51.58183105 -44.59814453 52.31420898 C-53.49192503 80.09863068 -49.28284693 110.37429307 -36.17578125 135.97265625 C-29.58289866 147.72949193 -21.16114599 155.09494869 -8.30078125 159.59765625 C4.26795479 163.04584868 15.28879891 161.80964666 26.7734375 155.98046875 C36.3628788 150.32386987 42.95667637 140.37452949 48.78125 131.12109375 C50.84283886 128.69739911 52.39508161 127.99602536 55.44921875 127.16015625 C61.85809503 127.03282758 68.25721301 128.66209035 74.44921875 130.16015625 C69.86130849 143.56168358 55.55481194 155.5712145 43.44921875 162.16015625 C38.58821861 164.25638282 33.55701296 165.78313336 28.44921875 167.16015625 C27.7840625 167.34562012 27.11890625 167.53108398 26.43359375 167.72216797 C3.94131089 173.44218818 -18.72829181 168.19750546 -38.55078125 157.16015625 C-42.44196289 154.72756798 -46.01289616 152.07863244 -49.55078125 149.16015625 C-50.38867188 148.49628906 -51.2265625 147.83242188 -52.08984375 147.1484375 C-69.02335844 132.96727427 -78.89207161 111.82285998 -81.55078125 90.16015625 C-82.78416713 66.84441938 -77.67784884 45.66564724 -62.30859375 27.51171875 C-46.15257041 10.29628404 -23.22194828 1.45803963 0 0 Z " fill="#000000" transform="translate(219.55078125,442.83984375)"/>
<path d="M0 0 C10.25339556 8.57824476 13.23559083 18.02700935 15 31 C15.41169701 35.79131451 15.42121519 40.59077483 15.41069031 45.39683914 C15.40611615 47.66802031 15.42046756 49.93846092 15.43908691 52.20956421 C15.48155327 57.83356204 15.49315355 63.45753479 15.50531006 69.08166504 C15.51685257 73.87359343 15.54039451 78.66517002 15.58000183 83.45695114 C15.59350838 85.68667412 15.58941829 87.91591308 15.58459473 90.1456604 C15.59393316 91.51198949 15.60410143 92.87831326 15.61523438 94.24462891 C15.61728882 95.43182526 15.61934326 96.61902161 15.62145996 97.8421936 C16.03841325 101.3204459 16.89966648 103.22077928 19 106 C21.02126924 106.80636809 21.02126924 106.80636809 23.1875 106.8125 C24.445625 106.874375 25.70375 106.93625 27 107 C27.33 108.65 27.66 110.3 28 112 C19.37981998 115.96528281 10.44196384 117.69503792 1.1875 114.8125 C-4.47235356 111.5941519 -7.38494999 107.91827108 -10 102 C-10.4846875 102.37511719 -10.969375 102.75023437 -11.46875 103.13671875 C-24.42427039 113.02776028 -35.36276634 118.61381166 -52 117 C-61.75765372 114.95910461 -69.65631778 109.66174079 -75.4375 101.5625 C-80.70154632 92.88630177 -81.21273521 83.15411863 -79.53515625 73.2578125 C-77.89541667 67.02874261 -74.95847615 62.04234462 -71 57 C-70.52046875 56.38253906 -70.0409375 55.76507812 -69.546875 55.12890625 C-60.38093393 44.73621044 -45.5091721 40.60160068 -32.171875 39.7578125 C-24.57190753 39.61935155 -17.40231022 40.27638515 -10 42 C-9.88792013 21.052636 -9.88792013 21.052636 -19 3 C-23.33508358 0.10994428 -27.81201207 -1.13095892 -33 -1 C-38.46987407 0.4146226 -41.25823812 2.79812471 -44.40625 7.27734375 C-45.69465265 9.47836495 -46.81672399 11.64135607 -47.90625 13.94140625 C-48.41103882 15.00161987 -48.41103882 15.00161987 -48.92602539 16.08325195 C-49.58750717 17.50025673 -50.22832787 18.92713863 -50.84545898 20.36401367 C-53.2812771 25.66129587 -55.69743296 27.56287021 -61 30 C-63.82716095 30.94238698 -65.63176123 31.13465647 -68.5625 31.125 C-69.34753906 31.12757813 -70.13257813 31.13015625 -70.94140625 31.1328125 C-73 31 -73 31 -75 30 C-74.03572286 20.08172089 -68.59991154 9.61874134 -61 3 C-44.30130502 -9.45238096 -17.59561967 -13.55670498 0 0 Z M-49 59 C-53.95074209 66.6122831 -54.65829713 74.04245694 -54 83 C-52.64386592 88.52425206 -49.64078506 93.11668963 -45.01171875 96.41796875 C-37.89065314 100.5787223 -31.09712516 101.01792431 -23 100 C-17.99023979 98.66146485 -13.36596214 97.09772022 -10 93 C-9.56782998 90.9272472 -9.56782998 90.9272472 -9.65942383 88.62036133 C-9.65965042 87.73967484 -9.65987701 86.85898834 -9.66011047 85.95161438 C-9.67559433 85.00465195 -9.69107819 84.05768951 -9.70703125 83.08203125 C-9.71339851 81.62345955 -9.71339851 81.62345955 -9.71989441 80.13542175 C-9.73669685 77.02750034 -9.77435221 73.92022566 -9.8125 70.8125 C-9.8275448 68.70638957 -9.84123356 66.60026898 -9.85351562 64.49414062 C-9.88660556 59.32917762 -9.93839891 54.16469849 -10 49 C-11.27270752 48.67692871 -12.54541504 48.35385742 -13.85668945 48.02099609 C-14.57258743 47.83926849 -15.28848541 47.65754089 -16.02607727 47.4703064 C-28.21712683 44.5656696 -41.0979404 49.57896998 -49 59 Z " fill="#000000" transform="translate(382,494)"/>
<path d="M0 0 C8.25 0 16.5 0 25 0 C27.46017299 5.53538923 29.67391095 10.64349276 31.57788086 16.31713867 C31.8045192 16.98846832 32.03115753 17.65979797 32.2646637 18.35147095 C33.002093 20.53896935 33.73346039 22.72844235 34.46484375 24.91796875 C34.98481852 26.46354437 35.50521744 28.00897736 36.02601624 29.55427551 C37.39065445 33.60654823 38.75033295 37.66046641 40.10870361 41.71484375 C42.27706937 48.18401185 44.45316983 54.6505823 46.62899971 61.11724281 C47.37979224 63.35087722 48.128554 65.58518345 48.87693787 67.81962585 C51.13557256 74.55348318 53.42090372 81.27704579 55.78735352 87.97387695 C56.18930435 89.11202347 56.59125519 90.25016998 57.00538635 91.42280579 C57.75930468 93.8943357 57.75930468 93.8943357 59 95 C59.45624756 93.9569873 59.91249512 92.91397461 60.38256836 91.83935547 C69.58807784 70.8020196 78.84244246 49.78841318 88.25170898 28.84130859 C92.55762588 19.25179175 96.80472594 9.63845265 101 0 C103.31 0 105.62 0 108 0 C107.35464255 4.30526029 105.80139139 7.97199191 103.96484375 11.87890625 C103.65486954 12.55026108 103.34489532 13.22161591 103.02552795 13.91331482 C102.35347517 15.36796461 101.67910762 16.82154673 101.00268555 18.27416992 C99.16580725 22.22032171 97.34713853 26.17485433 95.52734375 30.12890625 C95.15032318 30.94718903 94.77330261 31.7654718 94.38485718 32.60855103 C90.50881727 41.03662776 86.74912074 49.51490323 83 58 C77.42900876 70.59631626 71.76019592 83.14352772 66.00805664 95.65811157 C62.19269771 103.96159561 58.41491488 112.27939333 54.71875 120.63671875 C54.36401611 121.43840485 54.00928223 122.24009094 53.64379883 123.06607056 C51.94907253 126.89944245 50.25975143 130.73508294 48.578125 134.57421875 C45.46630013 141.65311253 42.26013285 148.67553696 38.84375 155.61328125 C38.53304565 156.25299362 38.22234131 156.89270599 37.90222168 157.55180359 C34.18025052 164.99752142 30.69638173 170.42667991 23 174 C12.60928013 176.70609733 2.23566964 173.94991792 -7 169 C-10.45093827 166.80971986 -13.7583877 164.48858289 -17 162 C-16.07485476 157.48968553 -13.81698605 154.4515941 -11.1875 150.75 C-10.52911133 149.77546875 -10.52911133 149.77546875 -9.85742188 148.78125 C-8.54296875 146.921875 -8.54296875 146.921875 -6 144 C-2 144 -2 144 0.078125 145.79296875 C0.79484375 146.58316406 1.5115625 147.37335938 2.25 148.1875 C8.6881998 154.93379847 14.43503436 158.82064962 23.8671875 159.5234375 C27.78237864 158.56256641 30.01685401 155.59007005 32.08203125 152.25 C33.13455713 150.29473077 34.11063496 148.31864744 35.0625 146.3125 C35.40466553 145.60496582 35.74683105 144.89743164 36.09936523 144.16845703 C37.08113269 142.11892106 38.04379273 140.06156208 39 138 C39.474375 136.99066406 39.94875 135.98132813 40.4375 134.94140625 C44.32763063 126.06704575 41.31785538 119.60207481 38.1953125 110.80859375 C37.80398636 109.69460205 37.41266022 108.58061035 37.00947571 107.43286133 C35.94171748 104.39725375 34.86945533 101.36328652 33.79487228 98.33008957 C32.89848136 95.79751708 32.0057079 93.26367568 31.11288357 90.72984409 C23.07254102 67.91450218 14.93045952 45.13512549 6.74609375 22.37109375 C6.40943192 21.43394531 6.07277008 20.49679687 5.72590637 19.53125 C5.25141304 18.21338501 5.25141304 18.21338501 4.76733398 16.86889648 C4.47067841 16.04275848 4.17402283 15.21662048 3.86837769 14.365448 C3.29763009 12.81073997 2.70914287 11.26240908 2.10159302 9.72171021 C0.71671087 6.20880758 0 3.83404102 0 0 Z " fill="#000000" transform="translate(838,488)"/>
<path d="M0 0 C0.44365036 8.72512369 0.44365036 8.72512369 -3 13 C-7.78552484 17.30697235 -11.08249622 18.11536336 -17.42578125 18.24609375 C-18.69744141 18.27896484 -19.96910156 18.31183594 -21.27929688 18.34570312 C-23.95631614 18.40853478 -26.6333066 18.46395485 -29.31054688 18.51757812 C-30.58607422 18.55173828 -31.86160156 18.58589844 -33.17578125 18.62109375 C-34.34020752 18.6461499 -35.50463379 18.67120605 -36.7043457 18.69702148 C-40.1258045 19.01156555 -42.85112062 19.6272034 -46 21 C-47.34163026 23.85813434 -47.34163026 23.85813434 -48 27 C-48.350625 27.639375 -48.70125 28.27875 -49.0625 28.9375 C-52.07473618 35.5644196 -51.15458304 43.83100613 -51.16113281 50.92431641 C-51.16609772 52.21453201 -51.17106262 53.50474762 -51.17617798 54.83406067 C-51.18922764 58.35659633 -51.19573117 61.879113 -51.20018864 65.40166903 C-51.2031287 67.60433358 -51.20723502 69.80699303 -51.21169281 72.009655 C-51.22534211 78.90755996 -51.23502384 85.80545317 -51.2388947 92.70337069 C-51.24338287 100.65599633 -51.26097653 108.60845074 -51.2898953 116.56102431 C-51.31150692 122.71830872 -51.32159854 128.8755449 -51.32293582 135.03286684 C-51.32398333 138.70672802 -51.32988061 142.38042766 -51.34775543 146.05424881 C-51.36728881 150.14776297 -51.3629493 154.24091708 -51.35644531 158.33447266 C-51.3656601 159.54914719 -51.37487488 160.76382172 -51.3843689 162.01530457 C-51.37601517 163.6890641 -51.37601517 163.6890641 -51.36749268 165.39663696 C-51.36969252 166.84726752 -51.36969252 166.84726752 -51.3719368 168.32720375 C-50.92796956 171.51762206 -49.89186828 173.41342609 -48 176 C-45.97873076 176.80636809 -45.97873076 176.80636809 -43.8125 176.8125 C-42.554375 176.874375 -41.29625 176.93625 -40 177 C-39.505 179.475 -39.505 179.475 -39 182 C-47.59914992 185.95560897 -57.04573731 187.85297667 -66.3125 184.875 C-71.12866937 182.81231736 -73.6288931 179.52912446 -76.11465454 174.94392395 C-77.43183734 170.56406754 -77.29479326 166.32238356 -77.29052734 161.7722168 C-77.30060318 160.22959419 -77.30060318 160.22959419 -77.31088257 158.6558075 C-77.32988599 155.25356206 -77.33378918 151.85151398 -77.3359375 148.44921875 C-77.34236806 146.0733075 -77.34909661 143.69739703 -77.35610962 141.32148743 C-77.36809129 136.33401661 -77.37178995 131.34661506 -77.37060547 126.35913086 C-77.37040321 120.00569954 -77.39760501 113.65272023 -77.43214989 107.29939556 C-77.45453451 102.38591018 -77.45843934 97.47253114 -77.45738602 92.55900002 C-77.45972847 90.21932239 -77.46847443 87.87964122 -77.48405075 85.54001427 C-77.62592716 62.00973134 -74.40678479 42.11022146 -58 24 C-57.26136719 23.15695312 -56.52273438 22.31390625 -55.76171875 21.4453125 C-41.4955434 6.08173905 -20.71788815 -0.8089414 0 0 Z " fill="#000000" transform="translate(877,424)"/>
<path d="M0 0 C2.42044773 -0.1158413 4.83948092 -0.1927308 7.26171875 -0.26025391 C8.02363525 -0.29852295 8.78555176 -0.33679199 9.57055664 -0.3762207 C13.58720607 -0.43563727 15.45784519 -0.06864739 18.69140625 2.38818359 C21.15000824 5.72690769 21.38470536 7.20121908 21.12890625 11.18115234 C20.44539505 14.25695274 18.95558752 15.98731268 16.69921875 18.11474609 C13.77619731 19.08908657 11.55694075 19.33472367 8.5 19.50927734 C-21.69702831 21.42930604 -45.79825891 29.79846287 -66.73828125 52.73974609 C-80.61686522 69.20039219 -90.19720788 86.37362047 -90.51171875 108.40380859 C-90.53975996 109.77100863 -90.56842418 111.138196 -90.59765625 112.50537109 C-90.63899498 114.62939456 -90.67594687 116.75317393 -90.70214844 118.87744141 C-90.72982284 120.94920467 -90.77564734 123.01994369 -90.82421875 125.09130859 C-90.84403809 126.31930176 -90.86385742 127.54729492 -90.88427734 128.8125 C-91.41111381 132.98951641 -92.70126218 135.81143426 -95.98828125 138.48974609 C-99.48312026 139.43429718 -102.90654747 139.4339893 -106.30078125 138.11474609 C-110.27059563 134.13890842 -110.8124548 131.39916528 -110.83203125 125.85693359 C-110.83762558 125.16047729 -110.84321991 124.464021 -110.84898376 123.74645996 C-110.85738814 121.4933977 -110.83229049 119.24258208 -110.80078125 116.98974609 C-110.79490997 116.22253235 -110.7890387 115.4553186 -110.7829895 114.66485596 C-110.5250461 86.04699018 -102.17772418 63.88222091 -83.30078125 42.11474609 C-82.85605469 41.5962207 -82.41132812 41.07769531 -81.953125 40.54345703 C-66.83366745 23.03394595 -49.21627908 11.42752952 -27.30078125 4.11474609 C-26.32238281 3.78474609 -25.34398437 3.45474609 -24.3359375 3.11474609 C-16.29789414 0.6596609 -8.3402766 0.41595183 0 0 Z " fill="#F15A24" transform="translate(603.30078125,439.88525390625)"/>
<path d="M0 0 C-1.74865686 15.50782527 -1.74865686 15.50782527 -7.75 20.4375 C-10.54051976 21.13512994 -12.91070217 20.73254298 -15.7265625 20.30859375 C-23.34413076 19.27459393 -29.57311968 19.4327494 -36 24 C-41.69812417 29.69812417 -42.2979676 36.01267519 -42.31884766 43.66748047 C-42.32889328 44.51691727 -42.3389389 45.36635406 -42.34928894 46.24153137 C-42.38004029 49.03341022 -42.39713363 51.82519352 -42.4140625 54.6171875 C-42.43278062 56.5591819 -42.45235452 58.50116822 -42.4727478 60.44314575 C-42.52400688 65.5426761 -42.56366594 70.6422328 -42.60089111 75.74188232 C-42.64096977 80.95038335 -42.6920445 86.15877536 -42.7421875 91.3671875 C-42.83887318 101.57805591 -42.92228471 111.78896956 -43 122 C-51.25 122 -59.5 122 -68 122 C-68 82.4 -68 42.8 -68 2 C-59.75 2 -51.5 2 -43 2 C-42.505 8.93 -42.505 8.93 -42 16 C-41.030625 14.80375 -40.06125 13.6075 -39.0625 12.375 C-31.93501645 4.25398844 -24.02234688 0.31406716 -13.265625 -0.9140625 C-8.81833165 -1.08275294 -4.41072832 -0.52701717 0 0 Z " fill="#000000" transform="translate(790,487)"/>
<path d="M0 0 C-1.74865686 15.50782527 -1.74865686 15.50782527 -7.75 20.4375 C-10.54051976 21.13512994 -12.91070217 20.73254298 -15.7265625 20.30859375 C-23.34413076 19.27459393 -29.57311968 19.4327494 -36 24 C-41.69812417 29.69812417 -42.2979676 36.01267519 -42.31884766 43.66748047 C-42.32889328 44.51691727 -42.3389389 45.36635406 -42.34928894 46.24153137 C-42.38004029 49.03341022 -42.39713363 51.82519352 -42.4140625 54.6171875 C-42.43278062 56.5591819 -42.45235452 58.50116822 -42.4727478 60.44314575 C-42.52400688 65.5426761 -42.56366594 70.6422328 -42.60089111 75.74188232 C-42.64096977 80.95038335 -42.6920445 86.15877536 -42.7421875 91.3671875 C-42.83887318 101.57805591 -42.92228471 111.78896956 -43 122 C-51.25 122 -59.5 122 -68 122 C-68 82.4 -68 42.8 -68 2 C-59.75 2 -51.5 2 -43 2 C-42.505 8.93 -42.505 8.93 -42 16 C-41.030625 14.80375 -40.06125 13.6075 -39.0625 12.375 C-31.93501645 4.25398844 -24.02234688 0.31406716 -13.265625 -0.9140625 C-8.81833165 -1.08275294 -4.41072832 -0.52701717 0 0 Z " fill="#000000" transform="translate(490,487)"/>
</svg>
