 <svg  version="1.0" xmlns="http://www.w3.org/2000/svg"  width="300.000000pt" height="300.000000pt" viewBox="0 0 300.000000 300.000000"  preserveAspectRatio="xMidYMid meet">  <g transform="translate(0.000000,300.000000) scale(0.100000,-0.100000)" fill="#ff7f3e" stroke="none"> <path d="M1522 1829 c-73 -12 -119 -38 -179 -102 -61 -64 -82 -110 -90 -192 -4 -48 -2 -63 10 -74 23 -18 37 -5 37 34 0 81 20 134 73 192 58 63 113 92 173 93 22 0 49 6 59 14 16 12 17 16 6 30 -15 18 -13 17 -89 5z"/> <path d="M1670 1794 c-26 -27 -26 -27 -29 -226 -1 -101 -2 -108 -25 -123 -29 -20 -68 -5 -85 32 -16 34 0 57 48 72 29 8 41 17 41 31 0 28 -13 31 -64 14 -56 -19 -76 -45 -76 -99 1 -62 45 -105 110 -105 82 0 100 38 100 218 0 123 2 141 19 156 23 21 49 12 57 -20 3 -13 4 -86 2 -162 -3 -132 -4 -141 -31 -180 -15 -23 -45 -51 -67 -62 -150 -76 -315 90 -238 240 30 57 78 90 133 90 45 0 69 17 56 39 -6 10 -25 12 -65 9 -114 -9 -191 -98 -191 -218 1 -102 43 -168 135 -209 60 -27 123 -26 186 3 103 48 134 123 134 323 0 169 -15 202 -91 203 -25 0 -42 -7 -59 -26z"/> </g> </svg> 